<mxfile host="app.diagrams.net" agent="Mozilla/5.0 (Windows NT 10.0; Win64; x64) AppleWebKit/537.36 (KHTML, like Gecko) Chrome/131.0.0.0 Safari/537.36" version="26.0.6">
  <diagram name="第 1 页" id="9-TWg4Ww6dwORrWYyeaC">
    <mxGraphModel dx="1434" dy="738" grid="1" gridSize="10" guides="1" tooltips="1" connect="1" arrows="1" fold="1" page="1" pageScale="1" pageWidth="827" pageHeight="1169" math="0" shadow="0">
      <root>
        <mxCell id="0" />
        <mxCell id="1" parent="0" />
        <mxCell id="jcqUKhRGZYXGKdBDmug--1" style="edgeStyle=none;rounded=0;orthogonalLoop=1;jettySize=auto;html=1;labelBackgroundColor=none;strokeColor=#000000;strokeWidth=1;fontSize=16;fontColor=#000000;startArrow=none;startFill=0;endArrow=classic;endFill=1;" edge="1" parent="1" source="jcqUKhRGZYXGKdBDmug--6" target="jcqUKhRGZYXGKdBDmug--5">
          <mxGeometry relative="1" as="geometry">
            <mxPoint x="180" y="60" as="targetPoint" />
          </mxGeometry>
        </mxCell>
        <mxCell id="jcqUKhRGZYXGKdBDmug--2" style="edgeStyle=orthogonalEdgeStyle;rounded=0;orthogonalLoop=1;jettySize=auto;html=1;entryX=0;entryY=0.5;entryDx=0;entryDy=0;labelBackgroundColor=none;strokeColor=#000000;strokeWidth=1;fontSize=16;fontColor=#000000;startArrow=none;startFill=0;endArrow=classic;endFill=1;" edge="1" parent="1" source="jcqUKhRGZYXGKdBDmug--8" target="jcqUKhRGZYXGKdBDmug--4">
          <mxGeometry relative="1" as="geometry">
            <mxPoint x="110" y="100" as="sourcePoint" />
            <Array as="points">
              <mxPoint x="140" y="110" />
            </Array>
          </mxGeometry>
        </mxCell>
        <mxCell id="jcqUKhRGZYXGKdBDmug--3" style="edgeStyle=orthogonalEdgeStyle;rounded=0;orthogonalLoop=1;jettySize=auto;html=1;labelBackgroundColor=none;strokeColor=#000000;strokeWidth=1;fontSize=14;fontColor=#000000;startArrow=none;startFill=0;endArrow=classic;endFill=1;entryX=0;entryY=0.25;entryDx=0;entryDy=0;" edge="1" parent="1" source="jcqUKhRGZYXGKdBDmug--11" target="jcqUKhRGZYXGKdBDmug--19">
          <mxGeometry relative="1" as="geometry">
            <mxPoint x="80" y="180" as="sourcePoint" />
            <mxPoint x="190" y="160" as="targetPoint" />
            <Array as="points">
              <mxPoint x="170" y="160" />
              <mxPoint x="170" y="160" />
            </Array>
          </mxGeometry>
        </mxCell>
        <mxCell id="jcqUKhRGZYXGKdBDmug--4" value="comb" style="ellipse;whiteSpace=wrap;html=1;labelBackgroundColor=none;strokeColor=default;strokeWidth=1;fontSize=14;fontColor=#000000;" vertex="1" parent="1">
          <mxGeometry x="195" y="90" width="50" height="40" as="geometry" />
        </mxCell>
        <mxCell id="jcqUKhRGZYXGKdBDmug--5" value="output" style="text;html=1;strokeColor=none;fillColor=none;align=center;verticalAlign=middle;whiteSpace=wrap;rounded=0;labelBackgroundColor=none;strokeWidth=1;fontSize=14;fontColor=#000000;" vertex="1" parent="1">
          <mxGeometry x="200" y="50" width="40" height="20" as="geometry" />
        </mxCell>
        <mxCell id="jcqUKhRGZYXGKdBDmug--6" value="" style="shape=waypoint;sketch=0;fillStyle=solid;size=6;pointerEvents=1;points=[];fillColor=none;resizable=0;rotatable=0;perimeter=centerPerimeter;snapToPoint=1;labelBackgroundColor=none;strokeColor=default;strokeWidth=1;fontSize=14;fontColor=#000000;" vertex="1" parent="1">
          <mxGeometry x="120" y="40" width="40" height="40" as="geometry" />
        </mxCell>
        <mxCell id="jcqUKhRGZYXGKdBDmug--7" value="" style="edgeStyle=none;rounded=0;orthogonalLoop=1;jettySize=auto;html=1;labelBackgroundColor=none;strokeColor=#000000;strokeWidth=1;fontSize=16;fontColor=#000000;startArrow=none;startFill=0;endArrow=none;endFill=1;" edge="1" parent="1" source="jcqUKhRGZYXGKdBDmug--14" target="jcqUKhRGZYXGKdBDmug--6">
          <mxGeometry relative="1" as="geometry">
            <mxPoint x="190" y="60" as="targetPoint" />
            <mxPoint x="120" y="60" as="sourcePoint" />
          </mxGeometry>
        </mxCell>
        <mxCell id="jcqUKhRGZYXGKdBDmug--8" value="" style="shape=waypoint;sketch=0;fillStyle=solid;size=6;pointerEvents=1;points=[];fillColor=none;resizable=0;rotatable=0;perimeter=centerPerimeter;snapToPoint=1;labelBackgroundColor=none;strokeColor=default;strokeWidth=1;fontSize=14;fontColor=#000000;" vertex="1" parent="1">
          <mxGeometry x="120" y="90" width="40" height="40" as="geometry" />
        </mxCell>
        <mxCell id="jcqUKhRGZYXGKdBDmug--9" value="" style="edgeStyle=orthogonalEdgeStyle;rounded=0;orthogonalLoop=1;jettySize=auto;html=1;entryDx=0;entryDy=0;labelBackgroundColor=none;strokeColor=#000000;strokeWidth=1;fontSize=16;fontColor=#000000;startArrow=none;startFill=0;endArrow=none;endFill=1;" edge="1" parent="1" source="jcqUKhRGZYXGKdBDmug--6" target="jcqUKhRGZYXGKdBDmug--8">
          <mxGeometry relative="1" as="geometry">
            <mxPoint x="140" y="60" as="sourcePoint" />
            <mxPoint x="195" y="120" as="targetPoint" />
            <Array as="points" />
          </mxGeometry>
        </mxCell>
        <mxCell id="jcqUKhRGZYXGKdBDmug--10" style="edgeStyle=orthogonalEdgeStyle;rounded=0;orthogonalLoop=1;jettySize=auto;html=1;entryX=0;entryY=0.5;entryDx=0;entryDy=0;labelBackgroundColor=none;strokeColor=#000000;strokeWidth=1;fontSize=12;fontColor=#0000FF;startArrow=none;startFill=0;endArrow=classic;endFill=1;" edge="1" parent="1" source="jcqUKhRGZYXGKdBDmug--11" target="jcqUKhRGZYXGKdBDmug--25">
          <mxGeometry relative="1" as="geometry">
            <Array as="points">
              <mxPoint x="140" y="240" />
            </Array>
          </mxGeometry>
        </mxCell>
        <mxCell id="jcqUKhRGZYXGKdBDmug--11" value="" style="shape=waypoint;sketch=0;fillStyle=solid;size=6;pointerEvents=1;points=[];fillColor=none;resizable=0;rotatable=0;perimeter=centerPerimeter;snapToPoint=1;labelBackgroundColor=none;strokeColor=default;strokeWidth=1;fontSize=14;fontColor=#000000;" vertex="1" parent="1">
          <mxGeometry x="120" y="140" width="40" height="40" as="geometry" />
        </mxCell>
        <mxCell id="jcqUKhRGZYXGKdBDmug--12" value="" style="edgeStyle=orthogonalEdgeStyle;rounded=0;orthogonalLoop=1;jettySize=auto;html=1;entryDx=0;entryDy=0;labelBackgroundColor=none;strokeColor=#000000;strokeWidth=1;fontSize=14;fontColor=#000000;startArrow=none;startFill=0;endArrow=none;endFill=1;" edge="1" parent="1" source="jcqUKhRGZYXGKdBDmug--8" target="jcqUKhRGZYXGKdBDmug--11">
          <mxGeometry relative="1" as="geometry">
            <mxPoint x="140" y="120" as="sourcePoint" />
            <mxPoint x="200" y="182.5" as="targetPoint" />
            <Array as="points" />
          </mxGeometry>
        </mxCell>
        <mxCell id="jcqUKhRGZYXGKdBDmug--13" value="" style="group" vertex="1" connectable="0" parent="1">
          <mxGeometry x="60" y="40" width="40" height="40" as="geometry" />
        </mxCell>
        <mxCell id="jcqUKhRGZYXGKdBDmug--14" value="FF" style="rounded=0;whiteSpace=wrap;html=1;labelBackgroundColor=none;strokeColor=default;strokeWidth=1;fontSize=14;fontColor=#7F00FF;" vertex="1" parent="jcqUKhRGZYXGKdBDmug--13">
          <mxGeometry width="40" height="40" as="geometry" />
        </mxCell>
        <mxCell id="jcqUKhRGZYXGKdBDmug--15" value="" style="triangle;whiteSpace=wrap;html=1;labelBackgroundColor=none;strokeColor=default;strokeWidth=1;fontSize=14;fontColor=#000000;" vertex="1" parent="jcqUKhRGZYXGKdBDmug--13">
          <mxGeometry y="20" width="10" height="20" as="geometry" />
        </mxCell>
        <mxCell id="jcqUKhRGZYXGKdBDmug--16" value="D" style="text;html=1;strokeColor=none;fillColor=none;align=center;verticalAlign=middle;whiteSpace=wrap;rounded=0;labelBackgroundColor=none;strokeWidth=1;fontSize=12;fontColor=#0000FF;fontStyle=2" vertex="1" parent="jcqUKhRGZYXGKdBDmug--13">
          <mxGeometry x="3" y="4.799999999999997" width="10" height="8" as="geometry" />
        </mxCell>
        <mxCell id="jcqUKhRGZYXGKdBDmug--17" value="Q" style="text;html=1;strokeColor=none;fillColor=none;align=center;verticalAlign=middle;whiteSpace=wrap;rounded=0;labelBackgroundColor=none;strokeWidth=1;fontSize=12;fontColor=#0000FF;fontStyle=2" vertex="1" parent="jcqUKhRGZYXGKdBDmug--13">
          <mxGeometry x="28" y="12" width="10" height="8" as="geometry" />
        </mxCell>
        <mxCell id="jcqUKhRGZYXGKdBDmug--18" value="" style="group" vertex="1" connectable="0" parent="1">
          <mxGeometry x="200" y="150" width="40" height="40" as="geometry" />
        </mxCell>
        <mxCell id="jcqUKhRGZYXGKdBDmug--19" value="FF" style="rounded=0;whiteSpace=wrap;html=1;labelBackgroundColor=none;strokeColor=default;strokeWidth=1;fontSize=14;fontColor=#7F00FF;" vertex="1" parent="jcqUKhRGZYXGKdBDmug--18">
          <mxGeometry width="40" height="40" as="geometry" />
        </mxCell>
        <mxCell id="jcqUKhRGZYXGKdBDmug--20" value="" style="triangle;whiteSpace=wrap;html=1;labelBackgroundColor=none;strokeColor=default;strokeWidth=1;fontSize=14;fontColor=#000000;" vertex="1" parent="jcqUKhRGZYXGKdBDmug--18">
          <mxGeometry y="20" width="10" height="20" as="geometry" />
        </mxCell>
        <mxCell id="jcqUKhRGZYXGKdBDmug--21" value="D" style="text;html=1;strokeColor=none;fillColor=none;align=center;verticalAlign=middle;whiteSpace=wrap;rounded=0;labelBackgroundColor=none;strokeWidth=1;fontSize=12;fontColor=#0000FF;fontStyle=2" vertex="1" parent="jcqUKhRGZYXGKdBDmug--18">
          <mxGeometry x="3" y="4.799999999999997" width="10" height="8" as="geometry" />
        </mxCell>
        <mxCell id="jcqUKhRGZYXGKdBDmug--22" value="Q" style="text;html=1;strokeColor=none;fillColor=none;align=center;verticalAlign=middle;whiteSpace=wrap;rounded=0;labelBackgroundColor=none;strokeWidth=1;fontSize=12;fontColor=#0000FF;fontStyle=2" vertex="1" parent="jcqUKhRGZYXGKdBDmug--18">
          <mxGeometry x="28" y="12" width="10" height="8" as="geometry" />
        </mxCell>
        <mxCell id="jcqUKhRGZYXGKdBDmug--23" value="" style="group" vertex="1" connectable="0" parent="1">
          <mxGeometry x="200" y="210" width="40" height="40" as="geometry" />
        </mxCell>
        <mxCell id="jcqUKhRGZYXGKdBDmug--24" value="FF" style="rounded=0;whiteSpace=wrap;html=1;labelBackgroundColor=none;strokeColor=default;strokeWidth=1;fontSize=14;fontColor=#7F00FF;" vertex="1" parent="jcqUKhRGZYXGKdBDmug--23">
          <mxGeometry width="40" height="40" as="geometry" />
        </mxCell>
        <mxCell id="jcqUKhRGZYXGKdBDmug--25" value="" style="triangle;whiteSpace=wrap;html=1;labelBackgroundColor=none;strokeColor=default;strokeWidth=1;fontSize=14;fontColor=#000000;" vertex="1" parent="jcqUKhRGZYXGKdBDmug--23">
          <mxGeometry y="20" width="10" height="20" as="geometry" />
        </mxCell>
        <mxCell id="jcqUKhRGZYXGKdBDmug--26" value="D" style="text;html=1;strokeColor=none;fillColor=none;align=center;verticalAlign=middle;whiteSpace=wrap;rounded=0;labelBackgroundColor=none;strokeWidth=1;fontSize=12;fontColor=#0000FF;fontStyle=2" vertex="1" parent="jcqUKhRGZYXGKdBDmug--23">
          <mxGeometry x="3" y="4.799999999999997" width="10" height="8" as="geometry" />
        </mxCell>
        <mxCell id="jcqUKhRGZYXGKdBDmug--27" value="Q" style="text;html=1;strokeColor=none;fillColor=none;align=center;verticalAlign=middle;whiteSpace=wrap;rounded=0;labelBackgroundColor=none;strokeWidth=1;fontSize=12;fontColor=#0000FF;fontStyle=2" vertex="1" parent="jcqUKhRGZYXGKdBDmug--23">
          <mxGeometry x="28" y="12" width="10" height="8" as="geometry" />
        </mxCell>
        <mxCell id="jcqUKhRGZYXGKdBDmug--28" style="edgeStyle=none;rounded=0;orthogonalLoop=1;jettySize=auto;html=1;labelBackgroundColor=none;strokeColor=#000000;strokeWidth=1;fontSize=16;fontColor=#000000;startArrow=none;startFill=0;endArrow=classic;endFill=1;" edge="1" parent="1" source="jcqUKhRGZYXGKdBDmug--33" target="jcqUKhRGZYXGKdBDmug--32">
          <mxGeometry relative="1" as="geometry">
            <mxPoint x="180" y="320" as="targetPoint" />
          </mxGeometry>
        </mxCell>
        <mxCell id="jcqUKhRGZYXGKdBDmug--29" style="edgeStyle=orthogonalEdgeStyle;rounded=0;orthogonalLoop=1;jettySize=auto;html=1;entryX=0;entryY=0.5;entryDx=0;entryDy=0;labelBackgroundColor=none;strokeColor=#000000;strokeWidth=1;fontSize=16;fontColor=#000000;startArrow=none;startFill=0;endArrow=classic;endFill=1;" edge="1" parent="1" source="jcqUKhRGZYXGKdBDmug--35" target="jcqUKhRGZYXGKdBDmug--31">
          <mxGeometry relative="1" as="geometry">
            <mxPoint x="110" y="360" as="sourcePoint" />
            <Array as="points">
              <mxPoint x="140" y="370" />
            </Array>
          </mxGeometry>
        </mxCell>
        <mxCell id="jcqUKhRGZYXGKdBDmug--30" style="edgeStyle=orthogonalEdgeStyle;rounded=0;orthogonalLoop=1;jettySize=auto;html=1;labelBackgroundColor=none;strokeColor=#000000;strokeWidth=1;fontSize=14;fontColor=#000000;startArrow=none;startFill=0;endArrow=classic;endFill=1;entryX=0;entryY=0.25;entryDx=0;entryDy=0;" edge="1" parent="1" source="jcqUKhRGZYXGKdBDmug--38" target="jcqUKhRGZYXGKdBDmug--41">
          <mxGeometry relative="1" as="geometry">
            <mxPoint x="80" y="440" as="sourcePoint" />
            <mxPoint x="190" y="420" as="targetPoint" />
            <Array as="points">
              <mxPoint x="170" y="420" />
              <mxPoint x="170" y="420" />
            </Array>
          </mxGeometry>
        </mxCell>
        <mxCell id="jcqUKhRGZYXGKdBDmug--31" value="comb" style="ellipse;whiteSpace=wrap;html=1;labelBackgroundColor=none;strokeColor=default;strokeWidth=1;fontSize=14;fontColor=#000000;" vertex="1" parent="1">
          <mxGeometry x="195" y="350" width="50" height="40" as="geometry" />
        </mxCell>
        <mxCell id="jcqUKhRGZYXGKdBDmug--32" value="output" style="text;html=1;strokeColor=none;fillColor=none;align=center;verticalAlign=middle;whiteSpace=wrap;rounded=0;labelBackgroundColor=none;strokeWidth=1;fontSize=14;fontColor=#000000;" vertex="1" parent="1">
          <mxGeometry x="190" y="310" width="60" height="20" as="geometry" />
        </mxCell>
        <mxCell id="jcqUKhRGZYXGKdBDmug--33" value="" style="shape=waypoint;sketch=0;fillStyle=solid;size=6;pointerEvents=1;points=[];fillColor=none;resizable=0;rotatable=0;perimeter=centerPerimeter;snapToPoint=1;labelBackgroundColor=none;strokeColor=default;strokeWidth=1;fontSize=14;fontColor=#000000;" vertex="1" parent="1">
          <mxGeometry x="120" y="300" width="40" height="40" as="geometry" />
        </mxCell>
        <mxCell id="jcqUKhRGZYXGKdBDmug--34" value="" style="edgeStyle=none;rounded=0;orthogonalLoop=1;jettySize=auto;html=1;labelBackgroundColor=none;strokeColor=#000000;strokeWidth=1;fontSize=16;fontColor=#000000;startArrow=none;startFill=0;endArrow=none;endFill=1;" edge="1" parent="1" source="jcqUKhRGZYXGKdBDmug--50" target="jcqUKhRGZYXGKdBDmug--33">
          <mxGeometry relative="1" as="geometry">
            <mxPoint x="190" y="320" as="targetPoint" />
            <mxPoint x="100" y="320" as="sourcePoint" />
          </mxGeometry>
        </mxCell>
        <mxCell id="jcqUKhRGZYXGKdBDmug--35" value="" style="shape=waypoint;sketch=0;fillStyle=solid;size=6;pointerEvents=1;points=[];fillColor=none;resizable=0;rotatable=0;perimeter=centerPerimeter;snapToPoint=1;labelBackgroundColor=none;strokeColor=default;strokeWidth=1;fontSize=14;fontColor=#000000;" vertex="1" parent="1">
          <mxGeometry x="120" y="350" width="40" height="40" as="geometry" />
        </mxCell>
        <mxCell id="jcqUKhRGZYXGKdBDmug--36" value="" style="edgeStyle=orthogonalEdgeStyle;rounded=0;orthogonalLoop=1;jettySize=auto;html=1;entryDx=0;entryDy=0;labelBackgroundColor=none;strokeColor=#000000;strokeWidth=1;fontSize=16;fontColor=#000000;startArrow=none;startFill=0;endArrow=none;endFill=1;" edge="1" parent="1" source="jcqUKhRGZYXGKdBDmug--33" target="jcqUKhRGZYXGKdBDmug--35">
          <mxGeometry relative="1" as="geometry">
            <mxPoint x="140" y="320" as="sourcePoint" />
            <mxPoint x="195" y="380" as="targetPoint" />
            <Array as="points" />
          </mxGeometry>
        </mxCell>
        <mxCell id="jcqUKhRGZYXGKdBDmug--37" style="edgeStyle=orthogonalEdgeStyle;rounded=0;orthogonalLoop=1;jettySize=auto;html=1;entryX=0;entryY=0.5;entryDx=0;entryDy=0;labelBackgroundColor=none;strokeColor=#000000;strokeWidth=1;fontSize=12;fontColor=#0000FF;startArrow=none;startFill=0;endArrow=classic;endFill=1;" edge="1" parent="1" source="jcqUKhRGZYXGKdBDmug--38" target="jcqUKhRGZYXGKdBDmug--47">
          <mxGeometry relative="1" as="geometry">
            <Array as="points">
              <mxPoint x="140" y="500" />
            </Array>
          </mxGeometry>
        </mxCell>
        <mxCell id="jcqUKhRGZYXGKdBDmug--38" value="" style="shape=waypoint;sketch=0;fillStyle=solid;size=6;pointerEvents=1;points=[];fillColor=none;resizable=0;rotatable=0;perimeter=centerPerimeter;snapToPoint=1;labelBackgroundColor=none;strokeColor=default;strokeWidth=1;fontSize=14;fontColor=#000000;" vertex="1" parent="1">
          <mxGeometry x="120" y="400" width="40" height="40" as="geometry" />
        </mxCell>
        <mxCell id="jcqUKhRGZYXGKdBDmug--39" value="" style="edgeStyle=orthogonalEdgeStyle;rounded=0;orthogonalLoop=1;jettySize=auto;html=1;entryDx=0;entryDy=0;labelBackgroundColor=none;strokeColor=#000000;strokeWidth=1;fontSize=14;fontColor=#000000;startArrow=none;startFill=0;endArrow=none;endFill=1;" edge="1" parent="1" source="jcqUKhRGZYXGKdBDmug--35" target="jcqUKhRGZYXGKdBDmug--38">
          <mxGeometry relative="1" as="geometry">
            <mxPoint x="140" y="380" as="sourcePoint" />
            <mxPoint x="200" y="442.5" as="targetPoint" />
            <Array as="points" />
          </mxGeometry>
        </mxCell>
        <mxCell id="jcqUKhRGZYXGKdBDmug--40" value="" style="group" vertex="1" connectable="0" parent="1">
          <mxGeometry x="200" y="410" width="40" height="40" as="geometry" />
        </mxCell>
        <mxCell id="jcqUKhRGZYXGKdBDmug--41" value="FF" style="rounded=0;whiteSpace=wrap;html=1;labelBackgroundColor=none;strokeColor=default;strokeWidth=1;fontSize=14;fontColor=#7F00FF;" vertex="1" parent="jcqUKhRGZYXGKdBDmug--40">
          <mxGeometry width="40" height="40" as="geometry" />
        </mxCell>
        <mxCell id="jcqUKhRGZYXGKdBDmug--42" value="" style="triangle;whiteSpace=wrap;html=1;labelBackgroundColor=none;strokeColor=default;strokeWidth=1;fontSize=14;fontColor=#000000;" vertex="1" parent="jcqUKhRGZYXGKdBDmug--40">
          <mxGeometry y="20" width="10" height="20" as="geometry" />
        </mxCell>
        <mxCell id="jcqUKhRGZYXGKdBDmug--43" value="D" style="text;html=1;strokeColor=none;fillColor=none;align=center;verticalAlign=middle;whiteSpace=wrap;rounded=0;labelBackgroundColor=none;strokeWidth=1;fontSize=12;fontColor=#0000FF;fontStyle=2" vertex="1" parent="jcqUKhRGZYXGKdBDmug--40">
          <mxGeometry x="3" y="4.799999999999997" width="10" height="8" as="geometry" />
        </mxCell>
        <mxCell id="jcqUKhRGZYXGKdBDmug--44" value="Q" style="text;html=1;strokeColor=none;fillColor=none;align=center;verticalAlign=middle;whiteSpace=wrap;rounded=0;labelBackgroundColor=none;strokeWidth=1;fontSize=12;fontColor=#0000FF;fontStyle=2" vertex="1" parent="jcqUKhRGZYXGKdBDmug--40">
          <mxGeometry x="28" y="12" width="10" height="8" as="geometry" />
        </mxCell>
        <mxCell id="jcqUKhRGZYXGKdBDmug--45" value="" style="group" vertex="1" connectable="0" parent="1">
          <mxGeometry x="200" y="470" width="40" height="40" as="geometry" />
        </mxCell>
        <mxCell id="jcqUKhRGZYXGKdBDmug--46" value="FF" style="rounded=0;whiteSpace=wrap;html=1;labelBackgroundColor=none;strokeColor=default;strokeWidth=1;fontSize=14;fontColor=#7F00FF;" vertex="1" parent="jcqUKhRGZYXGKdBDmug--45">
          <mxGeometry width="40" height="40" as="geometry" />
        </mxCell>
        <mxCell id="jcqUKhRGZYXGKdBDmug--47" value="" style="triangle;whiteSpace=wrap;html=1;labelBackgroundColor=none;strokeColor=default;strokeWidth=1;fontSize=14;fontColor=#000000;" vertex="1" parent="jcqUKhRGZYXGKdBDmug--45">
          <mxGeometry y="20" width="10" height="20" as="geometry" />
        </mxCell>
        <mxCell id="jcqUKhRGZYXGKdBDmug--48" value="D" style="text;html=1;strokeColor=none;fillColor=none;align=center;verticalAlign=middle;whiteSpace=wrap;rounded=0;labelBackgroundColor=none;strokeWidth=1;fontSize=12;fontColor=#0000FF;fontStyle=2" vertex="1" parent="jcqUKhRGZYXGKdBDmug--45">
          <mxGeometry x="3" y="4.799999999999997" width="10" height="8" as="geometry" />
        </mxCell>
        <mxCell id="jcqUKhRGZYXGKdBDmug--49" value="Q" style="text;html=1;strokeColor=none;fillColor=none;align=center;verticalAlign=middle;whiteSpace=wrap;rounded=0;labelBackgroundColor=none;strokeWidth=1;fontSize=12;fontColor=#0000FF;fontStyle=2" vertex="1" parent="jcqUKhRGZYXGKdBDmug--45">
          <mxGeometry x="28" y="12" width="10" height="8" as="geometry" />
        </mxCell>
        <mxCell id="jcqUKhRGZYXGKdBDmug--50" value="comb" style="ellipse;whiteSpace=wrap;html=1;labelBackgroundColor=none;strokeColor=default;strokeWidth=1;fontSize=14;fontColor=#000000;" vertex="1" parent="1">
          <mxGeometry x="50" y="300" width="50" height="40" as="geometry" />
        </mxCell>
        <mxCell id="jcqUKhRGZYXGKdBDmug--51" value="input" style="text;html=1;strokeColor=none;fillColor=none;align=center;verticalAlign=middle;whiteSpace=wrap;rounded=0;labelBackgroundColor=none;strokeWidth=1;fontSize=12;fontColor=#000000;" vertex="1" parent="1">
          <mxGeometry x="60" y="560" width="40" height="20" as="geometry" />
        </mxCell>
        <mxCell id="jcqUKhRGZYXGKdBDmug--52" style="edgeStyle=none;rounded=0;orthogonalLoop=1;jettySize=auto;html=1;labelBackgroundColor=none;strokeColor=#000000;strokeWidth=1;fontSize=16;fontColor=#000000;startArrow=none;startFill=0;endArrow=classic;endFill=1;" edge="1" parent="1" source="jcqUKhRGZYXGKdBDmug--57" target="jcqUKhRGZYXGKdBDmug--56">
          <mxGeometry relative="1" as="geometry">
            <mxPoint x="180" y="570" as="targetPoint" />
            <mxPoint x="140" y="570" as="sourcePoint" />
          </mxGeometry>
        </mxCell>
        <mxCell id="jcqUKhRGZYXGKdBDmug--53" style="edgeStyle=orthogonalEdgeStyle;rounded=0;orthogonalLoop=1;jettySize=auto;html=1;entryX=0;entryY=0.5;entryDx=0;entryDy=0;labelBackgroundColor=none;strokeColor=#000000;strokeWidth=1;fontSize=16;fontColor=#000000;startArrow=none;startFill=0;endArrow=classic;endFill=1;" edge="1" parent="1" source="jcqUKhRGZYXGKdBDmug--59" target="jcqUKhRGZYXGKdBDmug--55">
          <mxGeometry relative="1" as="geometry">
            <mxPoint x="110" y="610" as="sourcePoint" />
            <Array as="points">
              <mxPoint x="140" y="620" />
            </Array>
          </mxGeometry>
        </mxCell>
        <mxCell id="jcqUKhRGZYXGKdBDmug--54" style="edgeStyle=orthogonalEdgeStyle;rounded=0;orthogonalLoop=1;jettySize=auto;html=1;labelBackgroundColor=none;strokeColor=#000000;strokeWidth=1;fontSize=14;fontColor=#000000;startArrow=none;startFill=0;endArrow=classic;endFill=1;entryX=0;entryY=0.25;entryDx=0;entryDy=0;" edge="1" parent="1" source="jcqUKhRGZYXGKdBDmug--62" target="jcqUKhRGZYXGKdBDmug--65">
          <mxGeometry relative="1" as="geometry">
            <mxPoint x="80" y="690" as="sourcePoint" />
            <mxPoint x="190" y="670" as="targetPoint" />
            <Array as="points">
              <mxPoint x="170" y="670" />
              <mxPoint x="170" y="670" />
            </Array>
          </mxGeometry>
        </mxCell>
        <mxCell id="jcqUKhRGZYXGKdBDmug--55" value="comb" style="ellipse;whiteSpace=wrap;html=1;labelBackgroundColor=none;strokeColor=default;strokeWidth=1;fontSize=14;fontColor=#000000;" vertex="1" parent="1">
          <mxGeometry x="195" y="600" width="50" height="40" as="geometry" />
        </mxCell>
        <mxCell id="jcqUKhRGZYXGKdBDmug--56" value="output" style="text;html=1;strokeColor=none;fillColor=none;align=center;verticalAlign=middle;whiteSpace=wrap;rounded=0;labelBackgroundColor=none;strokeWidth=1;fontSize=14;fontColor=#000000;" vertex="1" parent="1">
          <mxGeometry x="190" y="560" width="60" height="20" as="geometry" />
        </mxCell>
        <mxCell id="jcqUKhRGZYXGKdBDmug--57" value="" style="shape=waypoint;sketch=0;fillStyle=solid;size=6;pointerEvents=1;points=[];fillColor=none;resizable=0;rotatable=0;perimeter=centerPerimeter;snapToPoint=1;labelBackgroundColor=none;strokeColor=default;strokeWidth=1;fontSize=14;fontColor=#000000;" vertex="1" parent="1">
          <mxGeometry x="120" y="550" width="40" height="40" as="geometry" />
        </mxCell>
        <mxCell id="jcqUKhRGZYXGKdBDmug--58" value="" style="edgeStyle=none;rounded=0;orthogonalLoop=1;jettySize=auto;html=1;labelBackgroundColor=none;strokeColor=#000000;strokeWidth=1;fontSize=16;fontColor=#000000;startArrow=none;startFill=0;endArrow=none;endFill=1;" edge="1" parent="1" source="jcqUKhRGZYXGKdBDmug--51" target="jcqUKhRGZYXGKdBDmug--57">
          <mxGeometry relative="1" as="geometry">
            <mxPoint x="140" y="570" as="targetPoint" />
            <mxPoint x="100" y="570" as="sourcePoint" />
          </mxGeometry>
        </mxCell>
        <mxCell id="jcqUKhRGZYXGKdBDmug--59" value="" style="shape=waypoint;sketch=0;fillStyle=solid;size=6;pointerEvents=1;points=[];fillColor=none;resizable=0;rotatable=0;perimeter=centerPerimeter;snapToPoint=1;labelBackgroundColor=none;strokeColor=default;strokeWidth=1;fontSize=14;fontColor=#000000;" vertex="1" parent="1">
          <mxGeometry x="120" y="600" width="40" height="40" as="geometry" />
        </mxCell>
        <mxCell id="jcqUKhRGZYXGKdBDmug--60" value="" style="edgeStyle=orthogonalEdgeStyle;rounded=0;orthogonalLoop=1;jettySize=auto;html=1;entryDx=0;entryDy=0;labelBackgroundColor=none;strokeColor=#000000;strokeWidth=1;fontSize=16;fontColor=#000000;startArrow=none;startFill=0;endArrow=none;endFill=1;" edge="1" parent="1" source="jcqUKhRGZYXGKdBDmug--57" target="jcqUKhRGZYXGKdBDmug--59">
          <mxGeometry relative="1" as="geometry">
            <mxPoint x="140" y="570" as="sourcePoint" />
            <mxPoint x="195" y="630" as="targetPoint" />
            <Array as="points" />
          </mxGeometry>
        </mxCell>
        <mxCell id="jcqUKhRGZYXGKdBDmug--61" style="edgeStyle=orthogonalEdgeStyle;rounded=0;orthogonalLoop=1;jettySize=auto;html=1;entryX=0;entryY=0.5;entryDx=0;entryDy=0;labelBackgroundColor=none;strokeColor=#000000;strokeWidth=1;fontSize=12;fontColor=#0000FF;startArrow=none;startFill=0;endArrow=classic;endFill=1;" edge="1" parent="1" source="jcqUKhRGZYXGKdBDmug--62" target="jcqUKhRGZYXGKdBDmug--71">
          <mxGeometry relative="1" as="geometry">
            <Array as="points">
              <mxPoint x="140" y="750" />
            </Array>
          </mxGeometry>
        </mxCell>
        <mxCell id="jcqUKhRGZYXGKdBDmug--62" value="" style="shape=waypoint;sketch=0;fillStyle=solid;size=6;pointerEvents=1;points=[];fillColor=none;resizable=0;rotatable=0;perimeter=centerPerimeter;snapToPoint=1;labelBackgroundColor=none;strokeColor=default;strokeWidth=1;fontSize=14;fontColor=#000000;" vertex="1" parent="1">
          <mxGeometry x="120" y="650" width="40" height="40" as="geometry" />
        </mxCell>
        <mxCell id="jcqUKhRGZYXGKdBDmug--63" value="" style="edgeStyle=orthogonalEdgeStyle;rounded=0;orthogonalLoop=1;jettySize=auto;html=1;entryDx=0;entryDy=0;labelBackgroundColor=none;strokeColor=#000000;strokeWidth=1;fontSize=14;fontColor=#000000;startArrow=none;startFill=0;endArrow=none;endFill=1;" edge="1" parent="1" source="jcqUKhRGZYXGKdBDmug--59" target="jcqUKhRGZYXGKdBDmug--62">
          <mxGeometry relative="1" as="geometry">
            <mxPoint x="140" y="630" as="sourcePoint" />
            <mxPoint x="200" y="692.5" as="targetPoint" />
            <Array as="points" />
          </mxGeometry>
        </mxCell>
        <mxCell id="jcqUKhRGZYXGKdBDmug--64" value="" style="group" vertex="1" connectable="0" parent="1">
          <mxGeometry x="200" y="660" width="40" height="40" as="geometry" />
        </mxCell>
        <mxCell id="jcqUKhRGZYXGKdBDmug--65" value="FF" style="rounded=0;whiteSpace=wrap;html=1;labelBackgroundColor=none;strokeColor=default;strokeWidth=1;fontSize=14;fontColor=#7F00FF;" vertex="1" parent="jcqUKhRGZYXGKdBDmug--64">
          <mxGeometry width="40" height="40" as="geometry" />
        </mxCell>
        <mxCell id="jcqUKhRGZYXGKdBDmug--66" value="" style="triangle;whiteSpace=wrap;html=1;labelBackgroundColor=none;strokeColor=default;strokeWidth=1;fontSize=14;fontColor=#000000;" vertex="1" parent="jcqUKhRGZYXGKdBDmug--64">
          <mxGeometry y="20" width="10" height="20" as="geometry" />
        </mxCell>
        <mxCell id="jcqUKhRGZYXGKdBDmug--67" value="D" style="text;html=1;strokeColor=none;fillColor=none;align=center;verticalAlign=middle;whiteSpace=wrap;rounded=0;labelBackgroundColor=none;strokeWidth=1;fontSize=12;fontColor=#0000FF;fontStyle=2" vertex="1" parent="jcqUKhRGZYXGKdBDmug--64">
          <mxGeometry x="3" y="4.799999999999997" width="10" height="8" as="geometry" />
        </mxCell>
        <mxCell id="jcqUKhRGZYXGKdBDmug--68" value="Q" style="text;html=1;strokeColor=none;fillColor=none;align=center;verticalAlign=middle;whiteSpace=wrap;rounded=0;labelBackgroundColor=none;strokeWidth=1;fontSize=12;fontColor=#0000FF;fontStyle=2" vertex="1" parent="jcqUKhRGZYXGKdBDmug--64">
          <mxGeometry x="28" y="12" width="10" height="8" as="geometry" />
        </mxCell>
        <mxCell id="jcqUKhRGZYXGKdBDmug--69" value="" style="group" vertex="1" connectable="0" parent="1">
          <mxGeometry x="200" y="720" width="40" height="40" as="geometry" />
        </mxCell>
        <mxCell id="jcqUKhRGZYXGKdBDmug--70" value="FF" style="rounded=0;whiteSpace=wrap;html=1;labelBackgroundColor=none;strokeColor=default;strokeWidth=1;fontSize=14;fontColor=#7F00FF;" vertex="1" parent="jcqUKhRGZYXGKdBDmug--69">
          <mxGeometry width="40" height="40" as="geometry" />
        </mxCell>
        <mxCell id="jcqUKhRGZYXGKdBDmug--71" value="" style="triangle;whiteSpace=wrap;html=1;labelBackgroundColor=none;strokeColor=default;strokeWidth=1;fontSize=14;fontColor=#000000;" vertex="1" parent="jcqUKhRGZYXGKdBDmug--69">
          <mxGeometry y="20" width="10" height="20" as="geometry" />
        </mxCell>
        <mxCell id="jcqUKhRGZYXGKdBDmug--72" value="D" style="text;html=1;strokeColor=none;fillColor=none;align=center;verticalAlign=middle;whiteSpace=wrap;rounded=0;labelBackgroundColor=none;strokeWidth=1;fontSize=12;fontColor=#0000FF;fontStyle=2" vertex="1" parent="jcqUKhRGZYXGKdBDmug--69">
          <mxGeometry x="3" y="4.799999999999997" width="10" height="8" as="geometry" />
        </mxCell>
        <mxCell id="jcqUKhRGZYXGKdBDmug--73" value="Q" style="text;html=1;strokeColor=none;fillColor=none;align=center;verticalAlign=middle;whiteSpace=wrap;rounded=0;labelBackgroundColor=none;strokeWidth=1;fontSize=12;fontColor=#0000FF;fontStyle=2" vertex="1" parent="jcqUKhRGZYXGKdBDmug--69">
          <mxGeometry x="28" y="12" width="10" height="8" as="geometry" />
        </mxCell>
      </root>
    </mxGraphModel>
  </diagram>
</mxfile>
